# xmcd
#
# Track frame offsets:
#	150
#	22350
#	40294
#	59643
#	76619
#	91060
#	107508
#	126235
#	143320
#	160001
#	178122
#	196161
#
# Disc length: 2826 seconds
#
# Revision: 1
# Processed by: cddbd v1.5.1PL0 Copyright (c) Steve Scherf et al.
# Submitted via: audiograbber 1.83.01
#
DISCID=940b080c
DTITLE=Payner SUMMER HITS 2003 - Chalga summer 03
DYEAR=2003
DGENRE=Pop
TTITLE0=Malina - Leden sviat
TTITLE1=Gloria - Labirint
TTITLE2=Anelia - Ne me laji
TTITLE3=Raina - Fresh ot portokal
TTITLE4=Reni - Ne moga bez tebe
TTITLE5=Magda - Bijuta i tzvetia
TTITLE6=Toni i Naiden Milkov - Igra na liubov
TTITLE7=Extra Nina - Otminal spomen
TTITLE8=Desislava - Dumi dve
TTITLE9=Lusi i Reihan - Imam nujda ot teb
TTITLE10=Emilia - Legenda za liubovta
TTITLE11=Ivana - K'uf si ti
EXTD=
EXTT0=
EXTT1=
EXTT2=
EXTT3=
EXTT4=
EXTT5=
EXTT6=
EXTT7=
EXTT8=
EXTT9=
EXTT10=
EXTT11=
PLAYORDER=
